<svg xmlns="http://www.w3.org/2000/svg" width="38.062" height="39" viewBox="0 0 38.062 39">
  <metadata><?xpacket begin="﻿" id="W5M0MpCehiHzreSzNTczkc9d"?>
<x:xmpmeta xmlns:x="adobe:ns:meta/" x:xmptk="Adobe XMP Core 5.6-c138 79.159824, 2016/09/14-01:09:01        ">
   <rdf:RDF xmlns:rdf="http://www.w3.org/1999/02/22-rdf-syntax-ns#">
      <rdf:Description rdf:about=""/>
   </rdf:RDF>
</x:xmpmeta>
                                                                                                    
                                                                                                    
                                                                                                    
                                                                                                    
                                                                                                    
                                                                                                    
                                                                                                    
                                                                                                    
                                                                                                    
                                                                                                    
                                                                                                    
                                                                                                    
                                                                                                    
                                                                                                    
                                                                                                    
                                                                                                    
                                                                                                    
                                                                                                    
                                                                                                    
                                                                                                    
                           
<?xpacket end="w"?></metadata>
<defs>
    <style>
      .cls-1 {
        fill: #424852;
        fill-rule: evenodd;
      }
    </style>
  </defs>
  <path id="Forma_1" data-name="Forma 1" class="cls-1" d="M455.994,951.764a3.717,3.717,0,0,0,0,5.167,3.509,3.509,0,0,0,5.044,0l11.707-11.994-5.044-5.166Zm29.259-22.23,5.093-2.7,2.672-5.287L490.53,919l-5.16,2.736-2.637,5.222-6.207,6.361,2.518,2.58Zm1.115,13.866-0.481-.05a6.89,6.89,0,0,0-2.465.476l-14.637-15a7.4,7.4,0,0,0,.463-2.525l-0.048-.492A7.185,7.185,0,0,0,462.117,919a6.927,6.927,0,0,0-3.057.731l4.738,4.853a2.425,2.425,0,0,1,.535.879,2.473,2.473,0,0,1-.535,2.565,2.339,2.339,0,0,1-1.681.714,2.292,2.292,0,0,1-.825-0.164,2.368,2.368,0,0,1-.856-0.55l-4.737-4.855a7.387,7.387,0,0,0-.713,3.133,7.215,7.215,0,0,0,6.651,7.259l0.48,0.047a6.967,6.967,0,0,0,2.465-.473l14.636,15a7.456,7.456,0,0,0-.462,2.525l0.049,0.493a7.183,7.183,0,0,0,7.082,6.813,6.893,6.893,0,0,0,3.057-.73l-4.737-4.855a2.409,2.409,0,0,1-.537-0.875,2.476,2.476,0,0,1,.537-2.568,2.347,2.347,0,0,1,1.68-.714,2.3,2.3,0,0,1,.824.166,2.368,2.368,0,0,1,.857.548l4.738,4.854a7.364,7.364,0,0,0,.712-3.132A7.211,7.211,0,0,0,486.368,943.4Z" transform="translate(-454.969 -919)"/>
</svg>
