<svg xmlns="http://www.w3.org/2000/svg" width="26" height="47" viewBox="0 0 26 47">
  <metadata><?xpacket begin="﻿" id="W5M0MpCehiHzreSzNTczkc9d"?>
<x:xmpmeta xmlns:x="adobe:ns:meta/" x:xmptk="Adobe XMP Core 5.6-c138 79.159824, 2016/09/14-01:09:01        ">
   <rdf:RDF xmlns:rdf="http://www.w3.org/1999/02/22-rdf-syntax-ns#">
      <rdf:Description rdf:about=""/>
   </rdf:RDF>
</x:xmpmeta>
                                                                                                    
                                                                                                    
                                                                                                    
                                                                                                    
                                                                                                    
                                                                                                    
                                                                                                    
                                                                                                    
                                                                                                    
                                                                                                    
                                                                                                    
                                                                                                    
                                                                                                    
                                                                                                    
                                                                                                    
                                                                                                    
                                                                                                    
                                                                                                    
                                                                                                    
                                                                                                    
                           
<?xpacket end="w"?></metadata>
<defs>
    <style>
      .cls-1 {
        fill: #424852;
        fill-rule: evenodd;
      }
    </style>
  </defs>
  <path class="cls-1" d="M1228.93,934.118a0.763,0.763,0,0,0-.69-0.453h-9.06l8.94-14.465a0.783,0.783,0,0,0,.02-0.8,0.754,0.754,0,0,0-.67-0.4h-12.23a0.772,0.772,0,0,0-.69.432l-11.47,23.5a0.793,0.793,0,0,0,.04.761,0.754,0.754,0,0,0,.65.371h7.86l-8.57,20.848a0.805,0.805,0,0,0,.31.971,0.744,0.744,0,0,0,.98-0.163l24.47-29.767A0.793,0.793,0,0,0,1228.93,934.118Z" transform="translate(-1203 -918)"/>
</svg>
