<svg xmlns="http://www.w3.org/2000/svg" width="48" height="52" viewBox="0 0 48 52">
  <metadata><?xpacket begin="﻿" id="W5M0MpCehiHzreSzNTczkc9d"?>
<x:xmpmeta xmlns:x="adobe:ns:meta/" x:xmptk="Adobe XMP Core 5.6-c138 79.159824, 2016/09/14-01:09:01        ">
   <rdf:RDF xmlns:rdf="http://www.w3.org/1999/02/22-rdf-syntax-ns#">
      <rdf:Description rdf:about=""/>
   </rdf:RDF>
</x:xmpmeta>
                                                                                                    
                                                                                                    
                                                                                                    
                                                                                                    
                                                                                                    
                                                                                                    
                                                                                                    
                                                                                                    
                                                                                                    
                                                                                                    
                                                                                                    
                                                                                                    
                                                                                                    
                                                                                                    
                                                                                                    
                                                                                                    
                                                                                                    
                                                                                                    
                                                                                                    
                                                                                                    
                           
<?xpacket end="w"?></metadata>
<defs>
    <style>
      .cls-1 {
        fill: #424852;
        fill-rule: evenodd;
      }
    </style>
  </defs>
  <path class="cls-1" d="M870,945.351l-1.736-3.172-6.758,3.805-2.424-1.421,2.461-1.234-1.585-3.252-4.6,2.307-3-1.757a6.726,6.726,0,0,0,0-3.256l3-1.759,4.6,2.307,1.585-3.252-2.461-1.234,2.424-1.42,6.758,3.8L870,932.645l-4.881-2.748,3.977-2.328-1.789-3.142-3.976,2.328,0.094-5.66-3.577-.062-0.13,7.838-2.425,1.42,0.177-2.779-3.569-.233-0.331,5.192-3,1.761a6.529,6.529,0,0,0-2.777-1.631v-3.516l4.268-2.886-1.984-3.019-2.284,1.546v-2.84l6.627-4.033-1.841-3.111-4.787,2.914V913h-3.577v4.657l-4.786-2.914-1.841,3.111,6.627,4.033v2.84l-2.284-1.546-1.984,3.019,4.268,2.886V932.6a6.537,6.537,0,0,0-2.777,1.63l-3-1.76-0.331-5.192-3.569.233,0.176,2.779-2.424-1.42-0.13-7.838-3.577.062,0.094,5.66-3.976-2.328-1.789,3.142,3.977,2.328L822,932.645l1.736,3.171,6.757-3.8,2.425,1.42-2.461,1.234,1.585,3.252,4.6-2.307,3,1.759a6.726,6.726,0,0,0,0,3.256l-3,1.757-4.6-2.307-1.585,3.252,2.461,1.234-2.425,1.421-6.757-3.805L822,945.351l4.881,2.747-3.977,2.329,1.789,3.142,3.976-2.328-0.094,5.661,3.577,0.06,0.13-7.836,2.424-1.421-0.176,2.779,3.569,0.233,0.33-5.192,3-1.759a6.547,6.547,0,0,0,2.777,1.63v3.514l-4.269,2.888,1.985,3.018,2.284-1.545v2.84l-6.627,4.032,1.841,3.111,4.786-2.912V965h3.577v-4.657l4.787,2.912,1.841-3.111-6.628-4.032v-2.84l2.285,1.545,1.984-3.018-4.269-2.888V945.4a6.545,6.545,0,0,0,2.778-1.63l3,1.759,0.33,5.192,3.57-.233-0.177-2.779,2.425,1.421,0.13,7.836,3.577-.06-0.094-5.661,3.976,2.328,1.788-3.142-3.976-2.328Zm-24-3.33A3.023,3.023,0,1,1,848.981,939,3.005,3.005,0,0,1,846,942.021Z" transform="translate(-822 -913)"/>
</svg>
